<svg id="Layer_1" data-name="Layer 1" xmlns="http://www.w3.org/2000/svg" viewBox="0 0 178.01 89.61"><title>spotivis-logo</title><path d="M-515.93,380.65a33.87,33.87,0,0,0,3.07-5.91,33.55,33.55,0,0,0,1.81-6.26,37,37,0,0,0,.67-6.34,39.39,39.39,0,0,0-1.73-12.34,39,39,0,0,0-5.49-11.19,36.66,36.66,0,0,0-4.13-4.88,33.75,33.75,0,0,0-5-4.15,32.69,32.69,0,0,0-5.87-3.14,30.28,30.28,0,0,0-6.51-1.84,30,30,0,0,0-13.6.94,29.64,29.64,0,0,0-11.76,6.9,30.54,30.54,0,0,0-4.31,5.2,32.4,32.4,0,0,0-3,5.91,33.66,33.66,0,0,0-1.78,6.26,36.82,36.82,0,0,0-.64,6.33,39.72,39.72,0,0,0,1.74,12.29,39.14,39.14,0,0,0,5.45,11.15,37.07,37.07,0,0,0,4.1,4.88,33.56,33.56,0,0,0,5,4.16,33.29,33.29,0,0,0,5.85,3.17,30.65,30.65,0,0,0,6.5,1.86,29.82,29.82,0,0,0,13.59-.93,29.7,29.7,0,0,0,11.77-6.88A30.19,30.19,0,0,0-515.93,380.65Zm-51.55-23.11a3.64,3.64,0,0,1-3.87-1.85,3.6,3.6,0,0,1,1.24-4.74,52.31,52.31,0,0,1,6.2-3.48,71,71,0,0,1,8.31-3.34q3.18-1.06,6.42-1.86,2.68-.66,5.42-1.14,3.42-.58,6.87-.86a60.59,60.59,0,0,1,10,0,43.67,43.67,0,0,1,6.71,1.1,3.57,3.57,0,0,1,2.62,2.36,3.65,3.65,0,0,1-2.61,4.69,3.41,3.41,0,0,1-1.65,0,39.6,39.6,0,0,0-6.32-1,54.69,54.69,0,0,0-8.49.07c-1.48.12-2.94.3-4.4.52s-3,.5-4.46.82c-2.36.52-4.69,1.14-7,1.88-1.87.6-3.7,1.27-5.51,2a49.53,49.53,0,0,0-7.86,4.06A4.67,4.67,0,0,1-567.48,357.54Zm2.4,9.63a3,3,0,0,1,.51-4.11,14.87,14.87,0,0,1,1.71-1.13q2-1.19,4-2.18c1.13-.56,2.28-1.08,3.46-1.56,1.62-.66,3.28-1.25,5.51-1.93,1.16-.36,2.89-.8,4.64-1.17a57.86,57.86,0,0,1,6.68-1,54.46,54.46,0,0,1,8.94-.12,45.2,45.2,0,0,1,8.25,1.34,3,3,0,0,1,2.22,2,3,3,0,0,1-1.6,3.68,3,3,0,0,1-2.08.16,39.91,39.91,0,0,0-8.56-1.23,50.58,50.58,0,0,0-7.28.25c-1.66.18-3.31.44-4.95.77a53.09,53.09,0,0,0-6.1,1.6c-1.59.52-3.14,1.11-4.67,1.78a46.63,46.63,0,0,0-6.63,3.59A3,3,0,0,1-565.08,367.17Zm44.13,4a2.41,2.41,0,0,1-2.67,1,34.24,34.24,0,0,0-6.82-1.08,38,38,0,0,0-8,.38A46.36,46.36,0,0,0-545.1,373q-2.48.76-4.86,1.76t-4.66,2.18c-.9.46-1.78,1-2.68,1.44A2.38,2.38,0,0,1-560,378a2.39,2.39,0,0,1-.46-2.78,2.78,2.78,0,0,1,1.24-1.18c1.19-.66,2.39-1.3,3.61-1.9s2.5-1.19,3.78-1.72a57.88,57.88,0,0,1,5.83-2.1,47.77,47.77,0,0,1,5.67-1.37,41.57,41.57,0,0,1,17.69.53,2.79,2.79,0,0,1,1.56.86A2.39,2.39,0,0,1-520.95,371.15Z" transform="translate(632.22 -314.24)"/><path d="M-632.22,359v.17c59.62,59.62,118.38,59.62,178,0V359C-513.84,299.33-572.6,299.33-632.22,359Zm127.83,3.74a33.2,33.2,0,0,1-2,7.18,35.74,35.74,0,0,1-3.4,6.49,37.41,37.41,0,0,1-4.54,5.6,40.13,40.13,0,0,1-5.35,4.6A42.54,42.54,0,0,1-532,392.72a42.82,42.82,0,0,1-13.68,1.89,39.81,39.81,0,0,1-7-.78,37.2,37.2,0,0,1-6.91-2.05,37,37,0,0,1-6.49-3.43,34,34,0,0,1-5.71-4.82,33,33,0,0,1-7.56-13,33.12,33.12,0,0,1-1.09-15,34,34,0,0,1,2-7.2,35.29,35.29,0,0,1,3.44-6.49,36.89,36.89,0,0,1,4.55-5.59,41.6,41.6,0,0,1,5.38-4.59,43.07,43.07,0,0,1,12.39-6.14,42.56,42.56,0,0,1,13.68-1.87,40.81,40.81,0,0,1,7,.8,37,37,0,0,1,6.88,2.08,36.88,36.88,0,0,1,6.47,3.44,34.13,34.13,0,0,1,5.67,4.82,33,33,0,0,1,7.53,12.95A33.34,33.34,0,0,1-504.39,362.7Z" transform="translate(632.22 -314.24)"/></svg>